# 3ds Max Wavefront OBJ Exporter v0.97b - (c)2007 guruware
# File Created: 22.07.2015 01:56:27

mtllib Pills.mtl

#
# object Pills
#

v  9.8765 0.6685 -0.0000
v  9.8765 0.0000 -0.0000
v  8.5533 0.0000 -4.9383
v  8.5533 0.6685 -4.9383
v  4.9383 0.0000 -8.5533
v  4.9383 0.6685 -8.5533
v  0.0000 0.0000 -9.8765
v  0.0000 0.6685 -9.8765
v  -4.9383 0.0000 -8.5533
v  -4.9383 0.6685 -8.5533
v  -8.5533 0.0000 -4.9383
v  -8.5533 0.6685 -4.9383
v  -9.8765 0.0000 -0.0000
v  -9.8765 0.6685 -0.0000
v  -8.5533 0.0000 4.9383
v  -8.5533 0.6685 4.9383
v  -4.9383 0.0000 8.5533
v  -4.9383 0.6685 8.5533
v  0.0000 0.0000 9.8765
v  0.0000 0.6685 9.8765
v  4.9383 0.0000 8.5533
v  4.9383 0.6685 8.5533
v  8.5533 0.0000 4.9383
v  8.5533 0.6685 4.9383
v  9.5548 0.0000 -0.0000
v  8.2747 0.0000 4.7774
v  4.7774 0.0000 -8.2747
v  8.2747 0.0000 -4.7774
v  8.2747 26.5293 4.7774
v  9.5548 26.5293 -0.0000
v  8.2747 26.5293 -4.7774
v  4.7774 26.5293 -8.2747
v  9.8765 25.7738 -0.0000
v  8.5533 25.7738 -4.9383
v  8.5533 26.5293 -4.9383
v  9.8765 26.5293 -0.0000
v  4.9383 25.7738 -8.5533
v  4.9383 26.5293 -8.5533
v  0.0000 25.7738 -9.8765
v  0.0000 26.5293 -9.8765
v  -4.9383 25.7738 -8.5533
v  -4.9383 26.5293 -8.5533
v  -8.5533 25.7738 -4.9383
v  -8.5533 26.5293 -4.9383
v  -9.8765 25.7738 -0.0000
v  -9.8765 26.5293 -0.0000
v  -8.5533 25.7738 4.9383
v  -8.5533 26.5293 4.9383
v  -4.9383 25.7738 8.5533
v  -4.9383 26.5293 8.5533
v  0.0000 25.7738 9.8765
v  0.0000 26.5293 9.8765
v  4.9383 25.7738 8.5533
v  4.9383 26.5293 8.5533
v  8.5533 25.7738 4.9383
v  8.5533 26.5293 4.9383
v  4.7774 0.0000 8.2747
v  0.0000 0.0000 9.5548
v  -4.7774 0.0000 8.2747
v  -8.2747 0.0000 4.7774
v  -9.5548 0.0000 -0.0000
v  -8.2747 0.0000 -4.7774
v  -4.7774 0.0000 -8.2747
v  0.0000 0.0000 -9.5548
v  0.0000 26.5293 -9.5548
v  -4.7774 26.5293 -8.2747
v  -8.2747 26.5293 -4.7774
v  -9.5548 26.5293 -0.0000
v  -8.2747 26.5293 4.7774
v  -4.7774 26.5293 8.2747
v  0.0000 26.5293 9.5548
v  4.7774 26.5293 8.2747
v  10.8734 26.7116 -0.0000
v  10.8734 26.4715 -0.0000
v  9.4166 26.4715 -5.4367
v  9.4166 26.7116 -5.4367
v  5.4367 26.4715 -9.4166
v  5.4367 26.7116 -9.4166
v  0.0000 26.4715 -10.8734
v  0.0000 26.7116 -10.8734
v  -5.4367 26.4715 -9.4166
v  -5.4367 26.7116 -9.4166
v  -9.4166 26.4715 -5.4367
v  -9.4166 26.7116 -5.4367
v  -10.8734 26.4715 -0.0000
v  -10.8734 26.7116 -0.0000
v  -9.4166 26.4715 5.4367
v  -9.4166 26.7116 5.4367
v  -5.4367 26.4715 9.4166
v  -5.4367 26.7116 9.4166
v  0.0000 26.4715 10.8734
v  0.0000 26.7116 10.8734
v  5.4367 26.4715 9.4166
v  5.4367 26.7116 9.4166
v  9.4166 26.4715 5.4367
v  9.4166 26.7116 5.4367
v  10.6249 26.4715 -0.0000
v  9.2015 26.4715 5.3125
v  5.3125 26.4715 -9.2015
v  9.2015 26.4715 -5.3125
v  9.5897 32.1273 -0.0000
v  8.3049 32.1273 -4.7948
v  8.3049 32.1273 4.7948
v  10.6354 31.3683 -0.0000
v  10.8734 31.3683 -0.0000
v  9.4166 31.3683 -5.4367
v  9.2105 31.3683 -5.3177
v  5.4367 31.3683 -9.4166
v  5.3177 31.3683 -9.2105
v  0.0000 31.3683 -10.8734
v  0.0000 31.3683 -10.6354
v  -5.4367 31.3683 -9.4166
v  -5.3177 31.3683 -9.2105
v  -9.4166 31.3683 -5.4367
v  -9.2105 31.3683 -5.3177
v  -10.8734 31.3683 -0.0000
v  -10.6354 31.3683 -0.0000
v  -9.4166 31.3683 5.4367
v  -9.2105 31.3683 5.3177
v  -5.4367 31.3683 9.4166
v  -5.3177 31.3683 9.2105
v  0.0000 31.3683 10.8734
v  0.0000 31.3683 10.6354
v  5.4367 31.3683 9.4166
v  5.3177 31.3683 9.2105
v  9.4166 31.3683 5.4367
v  9.2105 31.3683 5.3177
v  9.8381 31.5044 -0.0000
v  9.8381 31.3683 -0.0000
v  8.5201 31.3683 -4.9191
v  8.5201 31.5044 -4.9191
v  4.9191 31.3683 -8.5201
v  4.9191 31.5044 -8.5201
v  0.0000 31.3683 -9.8381
v  0.0000 31.5044 -9.8381
v  -4.9191 31.3683 -8.5201
v  -4.9191 31.5044 -8.5201
v  -8.5201 31.3683 -4.9191
v  -8.5201 31.5044 -4.9191
v  -9.8381 31.3683 -0.0000
v  -9.8381 31.5044 -0.0000
v  -8.5201 31.3683 4.9191
v  -8.5201 31.5044 4.9191
v  -4.9191 31.3683 8.5201
v  -4.9191 31.5044 8.5201
v  0.0000 31.3683 9.8381
v  0.0000 31.5044 9.8381
v  4.9191 31.3683 8.5201
v  4.9191 31.5044 8.5201
v  8.5201 31.3683 4.9191
v  8.5201 31.5044 4.9191
v  10.8734 31.1127 -0.0000
v  9.4166 31.1127 -5.4367
v  5.4367 31.1127 -9.4166
v  0.0000 31.1127 -10.8734
v  -5.4367 31.1127 -9.4166
v  -9.4166 31.1127 -5.4367
v  -10.8734 31.1127 -0.0000
v  -9.4166 31.1127 5.4367
v  -5.4367 31.1127 9.4166
v  0.0000 31.1127 10.8734
v  5.4367 31.1127 9.4166
v  9.4166 31.1127 5.4367
v  10.0854 31.3683 -0.0000
v  8.7342 31.3683 -5.0427
v  5.0427 31.3683 -8.7342
v  0.0000 31.3683 -10.0854
v  -5.0427 31.3683 -8.7342
v  -8.7342 31.3683 -5.0427
v  -10.0854 31.3683 -0.0000
v  -8.7342 31.3683 5.0427
v  -5.0427 31.3683 8.7342
v  0.0000 31.3683 10.0854
v  5.0427 31.3683 8.7342
v  8.7342 31.3683 5.0427
v  8.5201 31.9470 -4.9191
v  9.8381 31.9470 -0.0000
v  4.9191 31.9470 -8.5201
v  0.0000 31.9470 -9.8381
v  -4.9191 31.9470 -8.5201
v  -8.5201 31.9470 -4.9191
v  -9.8381 31.9470 -0.0000
v  -8.5201 31.9470 4.9191
v  -4.9191 31.9470 8.5201
v  0.0000 31.9470 9.8381
v  4.9191 31.9470 8.5201
v  8.5201 31.9470 4.9191
v  8.5201 32.1273 -4.9191
v  9.8381 32.1273 -0.0000
v  4.9191 32.1273 -8.5201
v  0.0000 32.1273 -9.8381
v  -4.9191 32.1273 -8.5201
v  -8.5201 32.1273 -4.9191
v  -9.8381 32.1273 -0.0000
v  -8.5201 32.1273 4.9191
v  -4.9191 32.1273 8.5201
v  0.0000 32.1273 9.8381
v  4.9191 32.1273 8.5201
v  8.5201 32.1273 4.9191
v  4.7948 32.1273 -8.3049
v  0.0000 32.1273 -9.5897
v  -4.7948 32.1273 -8.3049
v  -8.3049 32.1273 -4.7948
v  -9.5897 32.1273 -0.0000
v  -8.3049 32.1273 4.7948
v  -4.7948 32.1273 8.3049
v  0.0000 32.1273 9.5897
v  4.7948 32.1273 8.3049
v  5.3125 26.4715 9.2015
v  0.0000 26.4715 10.6249
v  -5.3125 26.4715 9.2015
v  -9.2015 26.4715 5.3125
v  -10.6249 26.4715 -0.0000
v  -9.2015 26.4715 -5.3125
v  -5.3125 26.4715 -9.2015
v  0.0000 26.4715 -10.6249
# 216 vertices

vn 1.0000 0.0000 -0.0000
vn 0.8660 0.0000 -0.5000
vn 0.5000 0.0000 -0.8660
vn 0.0000 0.0000 -1.0000
vn -0.5000 0.0000 -0.8660
vn -0.8660 0.0000 -0.5000
vn -1.0000 0.0000 -0.0000
vn -0.8660 0.0000 0.5000
vn -0.5000 0.0000 0.8660
vn 0.0000 0.0000 1.0000
vn 0.5000 0.0000 0.8660
vn 0.8660 0.0000 0.5000
vn 0.0000 -1.0000 -0.0000
vn 0.0000 1.0000 -0.0000
vn 0.9659 0.0000 -0.2588
vn 0.7071 0.0000 -0.7071
vn 0.2588 0.0000 -0.9659
vn -0.2588 0.0000 -0.9659
vn -0.7071 0.0000 -0.7071
vn -0.9659 0.0000 -0.2588
vn -0.9659 0.0000 0.2588
vn -0.7071 0.0000 0.7071
vn -0.2588 0.0000 0.9659
vn 0.2588 0.0000 0.9659
vn 0.7071 0.0000 0.7071
vn 0.9659 0.0000 0.2588
# 26 vertex normals

vt 0.2195 0.8403 0.0000
vt 0.2132 0.8402 0.0000
vt 0.2134 0.7924 0.0000
vt 0.2197 0.7924 0.0000
vt 0.2136 0.7445 0.0000
vt 0.2198 0.7445 0.0000
vt 0.2137 0.6966 0.0000
vt 0.2199 0.6966 0.0000
vt 0.2138 0.6487 0.0000
vt 0.2201 0.6487 0.0000
vt 0.2139 0.6008 0.0000
vt 0.2201 0.6008 0.0000
vt 0.2140 0.5529 0.0000
vt 0.2202 0.5529 0.0000
vt 0.2140 0.5050 0.0000
vt 0.2203 0.5051 0.0000
vt 0.2141 0.4572 0.0000
vt 0.2204 0.4572 0.0000
vt 0.2142 0.4093 0.0000
vt 0.2204 0.4093 0.0000
vt 0.2142 0.3614 0.0000
vt 0.2205 0.3614 0.0000
vt 0.2193 0.9361 0.0000
vt 0.2130 0.9361 0.0000
vt 0.2133 0.8882 0.0000
vt 0.2195 0.8882 0.0000
vt 0.2102 0.8410 0.0000
vt 0.2104 0.8874 0.0000
vt 0.1464 0.7782 0.0000
vt 0.1867 0.8011 0.0000
vt 0.4644 0.8881 0.0000
vt 0.4651 0.8418 0.0000
vt 0.4890 0.8020 0.0000
vt 0.5295 0.7795 0.0000
vt 0.4549 0.8409 0.0000
vt 0.4550 0.7930 0.0000
vt 0.4621 0.7930 0.0000
vt 0.4621 0.8409 0.0000
vt 0.4551 0.7451 0.0000
vt 0.4622 0.7451 0.0000
vt 0.4552 0.6971 0.0000
vt 0.4623 0.6971 0.0000
vt 0.4553 0.6492 0.0000
vt 0.4624 0.6492 0.0000
vt 0.4554 0.6013 0.0000
vt 0.4625 0.6013 0.0000
vt 0.4555 0.5533 0.0000
vt 0.4626 0.5534 0.0000
vt 0.4556 0.5054 0.0000
vt 0.4626 0.5054 0.0000
vt 0.4556 0.4575 0.0000
vt 0.4627 0.4575 0.0000
vt 0.4557 0.4096 0.0000
vt 0.4628 0.4096 0.0000
vt 0.4557 0.3616 0.0000
vt 0.4628 0.3617 0.0000
vt 0.4545 0.9367 0.0000
vt 0.4546 0.8888 0.0000
vt 0.4616 0.8888 0.0000
vt 0.4616 0.9367 0.0000
vt 0.1888 0.7989 0.0000
vt 0.1876 0.9277 0.0000
vt 0.1897 0.9298 0.0000
vt 0.1476 0.9511 0.0000
vt 0.1484 0.9541 0.0000
vt 0.1013 0.9515 0.0000
vt 0.1005 0.9544 0.0000
vt 0.0610 0.9286 0.0000
vt 0.0588 0.9307 0.0000
vt 0.0375 0.8886 0.0000
vt 0.0346 0.8894 0.0000
vt 0.0372 0.8423 0.0000
vt 0.0343 0.8415 0.0000
vt 0.0601 0.8020 0.0000
vt 0.0579 0.7998 0.0000
vt 0.1001 0.7785 0.0000
vt 0.0993 0.7756 0.0000
vt 0.1472 0.7753 0.0000
vt 0.4869 0.7999 0.0000
vt 0.5288 0.7766 0.0000
vt 0.5759 0.7803 0.0000
vt 0.5767 0.7774 0.0000
vt 0.6156 0.8042 0.0000
vt 0.6178 0.8021 0.0000
vt 0.6381 0.8447 0.0000
vt 0.6410 0.8439 0.0000
vt 0.6373 0.8910 0.0000
vt 0.6402 0.8918 0.0000
vt 0.6135 0.9308 0.0000
vt 0.6156 0.9329 0.0000
vt 0.5730 0.9533 0.0000
vt 0.5737 0.9562 0.0000
vt 0.5266 0.9525 0.0000
vt 0.5258 0.9554 0.0000
vt 0.4869 0.9286 0.0000
vt 0.4847 0.9307 0.0000
vt 0.5620 0.6498 0.0000
vt 0.5598 0.6498 0.0000
vt 0.5607 0.5971 0.0000
vt 0.5630 0.5971 0.0000
vt 0.5616 0.5444 0.0000
vt 0.5638 0.5445 0.0000
vt 0.5622 0.4918 0.0000
vt 0.5645 0.4918 0.0000
vt 0.5627 0.4392 0.0000
vt 0.5649 0.4392 0.0000
vt 0.5627 0.3866 0.0000
vt 0.5650 0.3866 0.0000
vt 0.5625 0.3341 0.0000
vt 0.5647 0.3340 0.0000
vt 0.5618 0.2815 0.0000
vt 0.5640 0.2815 0.0000
vt 0.5606 0.2290 0.0000
vt 0.5628 0.2289 0.0000
vt 0.5593 0.1765 0.0000
vt 0.5613 0.1764 0.0000
vt 0.5558 0.1239 0.0000
vt 0.5585 0.1239 0.0000
vt 0.5600 0.7553 0.0000
vt 0.5577 0.7552 0.0000
vt 0.5587 0.7025 0.0000
vt 0.5610 0.7025 0.0000
vt 0.4776 0.0603 0.0000
vt 0.5241 0.0824 0.0000
vt 0.3838 0.0936 0.0000
vt 0.4262 0.0644 0.0000
vt 0.6798 0.0566 0.0000
vt 0.7262 0.0536 0.0000
vt 0.6410 0.0824 0.0000
vt 0.9520 0.1816 0.0000
vt 0.9542 0.1821 0.0000
vt 0.9327 0.2294 0.0000
vt 0.9307 0.2281 0.0000
vt 0.8972 0.2671 0.0000
vt 0.8957 0.2653 0.0000
vt 0.8524 0.2928 0.0000
vt 0.8515 0.2906 0.0000
vt 0.8024 0.3054 0.0000
vt 0.8021 0.3031 0.0000
vt 0.7508 0.3046 0.0000
vt 0.7512 0.3023 0.0000
vt 0.7012 0.2902 0.0000
vt 0.7022 0.2881 0.0000
vt 0.6575 0.2627 0.0000
vt 0.6591 0.2609 0.0000
vt 0.6240 0.2231 0.0000
vt 0.6260 0.2220 0.0000
vt 0.6048 0.1748 0.0000
vt 0.6070 0.1744 0.0000
vt 0.6023 0.1223 0.0000
vt 0.6045 0.1231 0.0000
vt 0.9431 0.0807 0.0000
vt 0.9449 0.0794 0.0000
vt 0.9583 0.1302 0.0000
vt 0.9561 0.1305 0.0000
vt 0.9434 0.1795 0.0000
vt 0.9444 0.1798 0.0000
vt 0.9242 0.2240 0.0000
vt 0.9232 0.2234 0.0000
vt 0.8907 0.2594 0.0000
vt 0.8899 0.2585 0.0000
vt 0.8484 0.2834 0.0000
vt 0.8479 0.2824 0.0000
vt 0.8011 0.2953 0.0000
vt 0.8010 0.2941 0.0000
vt 0.7524 0.2945 0.0000
vt 0.7526 0.2933 0.0000
vt 0.7056 0.2811 0.0000
vt 0.7061 0.2800 0.0000
vt 0.6644 0.2552 0.0000
vt 0.6652 0.2543 0.0000
vt 0.6328 0.2182 0.0000
vt 0.6338 0.2176 0.0000
vt 0.6147 0.1733 0.0000
vt 0.6159 0.1728 0.0000
vt 0.6115 0.1253 0.0000
vt 0.6126 0.1250 0.0000
vt 0.9358 0.0849 0.0000
vt 0.9369 0.0849 0.0000
vt 0.9484 0.1316 0.0000
vt 0.9472 0.1315 0.0000
vt 0.6032 0.6506 0.0000
vt 0.6042 0.5978 0.0000
vt 0.6066 0.5978 0.0000
vt 0.6056 0.6506 0.0000
vt 0.6051 0.5450 0.0000
vt 0.6075 0.5450 0.0000
vt 0.6057 0.4922 0.0000
vt 0.6081 0.4922 0.0000
vt 0.6061 0.4394 0.0000
vt 0.6085 0.4394 0.0000
vt 0.6062 0.3865 0.0000
vt 0.6086 0.3865 0.0000
vt 0.6059 0.3336 0.0000
vt 0.6083 0.3336 0.0000
vt 0.6052 0.2807 0.0000
vt 0.6076 0.2807 0.0000
vt 0.6041 0.2278 0.0000
vt 0.6065 0.2278 0.0000
vt 0.6024 0.1749 0.0000
vt 0.5999 0.1222 0.0000
vt 0.6012 0.7560 0.0000
vt 0.6022 0.7033 0.0000
vt 0.6046 0.7033 0.0000
vt 0.6036 0.7561 0.0000
vt 0.9468 0.1804 0.0000
vt 0.9262 0.2253 0.0000
vt 0.8923 0.2612 0.0000
vt 0.8494 0.2857 0.0000
vt 0.8014 0.2977 0.0000
vt 0.7520 0.2970 0.0000
vt 0.7045 0.2833 0.0000
vt 0.6627 0.2570 0.0000
vt 0.6307 0.2194 0.0000
vt 0.6123 0.1736 0.0000
vt 0.6094 0.1246 0.0000
vt 0.9388 0.0837 0.0000
vt 0.9508 0.1312 0.0000
vt 0.9200 0.2213 0.0000
vt 0.9397 0.1785 0.0000
vt 0.8875 0.2555 0.0000
vt 0.8464 0.2787 0.0000
vt 0.8005 0.2902 0.0000
vt 0.7532 0.2894 0.0000
vt 0.7078 0.2764 0.0000
vt 0.6677 0.2514 0.0000
vt 0.6371 0.2155 0.0000
vt 0.6197 0.1716 0.0000
vt 0.6166 0.1242 0.0000
vt 0.9432 0.1314 0.0000
vt 0.9317 0.0853 0.0000
vt 0.9187 0.2204 0.0000
vt 0.9382 0.1780 0.0000
vt 0.8865 0.2543 0.0000
vt 0.8458 0.2773 0.0000
vt 0.8003 0.2886 0.0000
vt 0.7535 0.2879 0.0000
vt 0.7084 0.2750 0.0000
vt 0.6688 0.2502 0.0000
vt 0.6384 0.2147 0.0000
vt 0.6212 0.1711 0.0000
vt 0.6182 0.1237 0.0000
vt 0.9416 0.1313 0.0000
vt 0.9300 0.0854 0.0000
vt 0.6790 0.0544 0.0000
vt 0.7266 0.0513 0.0000
vt 0.7679 0.0742 0.0000
vt 0.7694 0.0725 0.0000
vt 0.7937 0.1129 0.0000
vt 0.7959 0.1122 0.0000
vt 0.7966 0.1593 0.0000
vt 0.7989 0.1598 0.0000
vt 0.7760 0.2010 0.0000
vt 0.7777 0.2026 0.0000
vt 0.7373 0.2268 0.0000
vt 0.7380 0.2290 0.0000
vt 0.6909 0.2298 0.0000
vt 0.6904 0.2321 0.0000
vt 0.6492 0.2091 0.0000
vt 0.6476 0.2109 0.0000
vt 0.6234 0.1704 0.0000
vt 0.6204 0.1241 0.0000
vt 0.6393 0.0808 0.0000
vt 0.4254 0.0622 0.0000
vt 0.4780 0.0580 0.0000
vt 0.5256 0.0806 0.0000
vt 0.5534 0.1248 0.0000
vt 0.5572 0.1761 0.0000
vt 0.5352 0.2227 0.0000
vt 0.5369 0.2242 0.0000
vt 0.4927 0.2520 0.0000
vt 0.4935 0.2542 0.0000
vt 0.4414 0.2561 0.0000
vt 0.4410 0.2584 0.0000
vt 0.3948 0.2340 0.0000
vt 0.3933 0.2358 0.0000
vt 0.3656 0.1916 0.0000
vt 0.3634 0.1923 0.0000
vt 0.3616 0.1402 0.0000
vt 0.3593 0.1398 0.0000
vt 0.3820 0.0921 0.0000
# 281 texture coords

g Pills
usemtl 01___Default
s 8
f 1/1/1 2/2/1 3/3/2 4/4/2 
f 4/4/2 3/3/2 5/5/3 6/6/3 
f 6/6/3 5/5/3 7/7/4 8/8/4 
f 8/8/4 7/7/4 9/9/5 10/10/5 
f 10/10/5 9/9/5 11/11/6 12/12/6 
f 12/12/6 11/11/6 13/13/7 14/14/7 
f 14/14/7 13/13/7 15/15/8 16/16/8 
f 16/16/8 15/15/8 17/17/9 18/18/9 
f 18/18/9 17/17/9 19/19/10 20/20/10 
f 20/20/10 19/19/10 21/21/11 22/22/11 
f 22/23/11 21/24/11 23/25/12 24/26/12 
f 24/26/12 23/25/12 2/2/1 1/1/1 
s 1
f 25/27/13 26/28/13 27/29/13 28/30/13 
f 29/31/14 30/32/14 31/33/14 32/34/14 
s 8
f 33/35/1 34/36/2 35/37/2 36/38/1 
f 34/36/2 37/39/3 38/40/3 35/37/2 
f 37/39/3 39/41/4 40/42/4 38/40/3 
f 39/41/4 41/43/5 42/44/5 40/42/4 
f 41/43/5 43/45/6 44/46/6 42/44/5 
f 43/45/6 45/47/7 46/48/7 44/46/6 
f 45/47/7 47/49/8 48/50/8 46/48/7 
f 47/49/8 49/51/9 50/52/9 48/50/8 
f 49/51/9 51/53/10 52/54/10 50/52/9 
f 51/53/10 53/55/11 54/56/11 52/54/10 
f 53/57/11 55/58/12 56/59/12 54/60/11 
f 55/58/12 33/35/1 36/38/1 56/59/12 
f 1/1/1 4/4/2 34/36/2 33/35/1 
f 4/4/2 6/6/3 37/39/3 34/36/2 
f 6/6/3 8/8/4 39/41/4 37/39/3 
f 8/8/4 10/10/5 41/43/5 39/41/4 
f 10/10/5 12/12/6 43/45/6 41/43/5 
f 12/12/6 14/14/7 45/47/7 43/45/6 
f 14/14/7 16/16/8 47/49/8 45/47/7 
f 16/16/8 18/18/9 49/51/9 47/49/8 
f 18/18/9 20/20/10 51/53/10 49/51/9 
f 20/20/10 22/22/11 53/55/11 51/53/10 
f 22/23/11 24/26/12 55/58/12 53/57/11 
f 24/26/12 1/1/1 33/35/1 55/58/12 
s off
f 25/27/13 28/30/13 3/61/13 2/2/13 
f 26/28/13 25/27/13 2/2/13 23/25/13 
f 57/62/13 26/28/13 23/25/13 21/63/13 
f 58/64/13 57/62/13 21/63/13 19/65/13 
f 59/66/13 58/64/13 19/65/13 17/67/13 
f 60/68/13 59/66/13 17/67/13 15/69/13 
f 61/70/13 60/68/13 15/69/13 13/71/13 
f 62/72/13 61/70/13 13/71/13 11/73/13 
f 63/74/13 62/72/13 11/73/13 9/75/13 
f 64/76/13 63/74/13 9/75/13 7/77/13 
f 27/29/13 64/76/13 7/77/13 5/78/13 
f 28/30/13 27/29/13 5/78/13 3/61/13 
f 31/33/14 30/32/14 36/38/14 35/79/14 
f 32/34/14 31/33/14 35/79/14 38/80/14 
f 65/81/14 32/34/14 38/80/14 40/82/14 
f 66/83/14 65/81/14 40/82/14 42/84/14 
f 67/85/14 66/83/14 42/84/14 44/86/14 
f 68/87/14 67/85/14 44/86/14 46/88/14 
f 69/89/14 68/87/14 46/88/14 48/90/14 
f 70/91/14 69/89/14 48/90/14 50/92/14 
f 71/93/14 70/91/14 50/92/14 52/94/14 
f 72/95/14 71/93/14 52/94/14 54/96/14 
f 29/31/14 72/95/14 54/96/14 56/59/14 
f 30/32/14 29/31/14 56/59/14 36/38/14 
s 1
f 62/72/13 59/66/13 60/68/13 61/70/13 
f 63/74/13 58/64/13 59/66/13 62/72/13 
f 64/76/13 57/62/13 58/64/13 63/74/13 
f 27/29/13 26/28/13 57/62/13 64/76/13 
f 70/91/14 67/85/14 68/87/14 69/89/14 
f 71/93/14 66/83/14 67/85/14 70/91/14 
f 72/95/14 65/81/14 66/83/14 71/93/14 
f 29/31/14 32/34/14 65/81/14 72/95/14 
s 8
f 73/97/1 74/98/1 75/99/2 76/100/2 
f 76/100/2 75/99/2 77/101/3 78/102/3 
f 78/102/3 77/101/3 79/103/4 80/104/4 
f 80/104/4 79/103/4 81/105/5 82/106/5 
f 82/106/5 81/105/5 83/107/6 84/108/6 
f 84/108/6 83/107/6 85/109/7 86/110/7 
f 86/110/7 85/109/7 87/111/8 88/112/8 
f 88/112/8 87/111/8 89/113/9 90/114/9 
f 90/114/9 89/113/9 91/115/10 92/116/10 
f 92/116/10 91/115/10 93/117/11 94/118/11 
f 94/119/11 93/120/11 95/121/12 96/122/12 
f 96/122/12 95/121/12 74/98/1 73/97/1 
s 1
f 97/123/13 98/124/13 99/125/13 100/126/13 
f 101/127/14 102/128/14 103/129/14 
s off
f 104/130/14 105/131/14 106/132/14 107/133/14 
f 107/133/14 106/132/14 108/134/14 109/135/14 
f 109/135/14 108/134/14 110/136/14 111/137/14 
f 111/137/14 110/136/14 112/138/14 113/139/14 
f 113/139/14 112/138/14 114/140/14 115/141/14 
f 115/141/14 114/140/14 116/142/14 117/143/14 
f 117/143/14 116/142/14 118/144/14 119/145/14 
f 119/145/14 118/144/14 120/146/14 121/147/14 
f 121/147/14 120/146/14 122/148/14 123/149/14 
f 123/149/14 122/148/14 124/150/14 125/151/14 
f 125/152/14 124/153/14 126/154/14 127/155/14 
f 127/155/14 126/154/14 105/131/14 104/130/14 
f 128/156/15 129/157/15 130/158/15 131/159/15 
f 131/159/16 130/158/16 132/160/16 133/161/16 
f 133/161/17 132/160/17 134/162/17 135/163/17 
f 135/163/18 134/162/18 136/164/18 137/165/18 
f 137/165/19 136/164/19 138/166/19 139/167/19 
f 139/167/20 138/166/20 140/168/20 141/169/20 
f 141/169/21 140/168/21 142/170/21 143/171/21 
f 143/171/22 142/170/22 144/172/22 145/173/22 
f 145/173/23 144/172/23 146/174/23 147/175/23 
f 147/175/24 146/174/24 148/176/24 149/177/24 
f 149/178/25 148/179/25 150/180/25 151/181/25 
f 151/181/26 150/180/26 129/157/26 128/156/26 
s 8
f 152/182/1 153/183/2 106/184/2 105/185/1 
f 153/183/2 154/186/3 108/187/3 106/184/2 
f 154/186/3 155/188/4 110/189/4 108/187/3 
f 155/188/4 156/190/5 112/191/5 110/189/4 
f 156/190/5 157/192/6 114/193/6 112/191/5 
f 157/192/6 158/194/7 116/195/7 114/193/6 
f 158/194/7 159/196/8 118/197/8 116/195/7 
f 159/196/8 160/198/9 120/199/9 118/197/8 
f 160/198/9 161/200/10 122/148/10 120/199/9 
f 161/200/10 162/201/11 124/150/11 122/148/10 
f 162/202/11 163/203/12 126/204/12 124/205/11 
f 163/203/12 152/182/1 105/185/1 126/204/12 
f 73/97/1 76/100/2 153/183/2 152/182/1 
f 76/100/2 78/102/3 154/186/3 153/183/2 
f 78/102/3 80/104/4 155/188/4 154/186/3 
f 80/104/4 82/106/5 156/190/5 155/188/4 
f 82/106/5 84/108/6 157/192/6 156/190/5 
f 84/108/6 86/110/7 158/194/7 157/192/6 
f 86/110/7 88/112/8 159/196/8 158/194/7 
f 88/112/8 90/114/9 160/198/9 159/196/8 
f 90/114/9 92/116/10 161/200/10 160/198/9 
f 92/116/10 94/118/11 162/201/11 161/200/10 
f 94/119/11 96/122/12 163/203/12 162/202/11 
f 96/122/12 73/97/1 152/182/1 163/203/12 
s off
f 164/206/14 165/207/14 130/158/14 129/157/14 
f 165/207/14 166/208/14 132/160/14 130/158/14 
f 166/208/14 167/209/14 134/162/14 132/160/14 
f 167/209/14 168/210/14 136/164/14 134/162/14 
f 168/210/14 169/211/14 138/166/14 136/164/14 
f 169/211/14 170/212/14 140/168/14 138/166/14 
f 170/212/14 171/213/14 142/170/14 140/168/14 
f 171/213/14 172/214/14 144/172/14 142/170/14 
f 172/214/14 173/215/14 146/174/14 144/172/14 
f 173/215/14 174/216/14 148/176/14 146/174/14 
f 174/217/14 175/218/14 150/180/14 148/179/14 
f 175/218/14 164/206/14 129/157/14 150/180/14 
f 128/156/15 131/159/15 176/219/15 177/220/15 
f 131/159/16 133/161/16 178/221/16 176/219/16 
f 133/161/17 135/163/17 179/222/17 178/221/17 
f 135/163/18 137/165/18 180/223/18 179/222/18 
f 137/165/19 139/167/19 181/224/19 180/223/19 
f 139/167/20 141/169/20 182/225/20 181/224/20 
f 141/169/21 143/171/21 183/226/21 182/225/21 
f 143/171/22 145/173/22 184/227/22 183/226/22 
f 145/173/23 147/175/23 185/228/23 184/227/23 
f 147/175/24 149/177/24 186/229/24 185/228/24 
f 149/178/25 151/181/25 187/230/25 186/231/25 
f 151/181/26 128/156/26 177/220/26 187/230/26 
f 177/220/15 176/219/15 188/232/15 189/233/15 
f 176/219/16 178/221/16 190/234/16 188/232/16 
f 178/221/17 179/222/17 191/235/17 190/234/17 
f 179/222/18 180/223/18 192/236/18 191/235/18 
f 180/223/19 181/224/19 193/237/19 192/236/19 
f 181/224/20 182/225/20 194/238/20 193/237/20 
f 182/225/21 183/226/21 195/239/21 194/238/21 
f 183/226/22 184/227/22 196/240/22 195/239/22 
f 184/227/23 185/228/23 197/241/23 196/240/23 
f 185/228/24 186/229/24 198/242/24 197/241/24 
f 186/231/25 187/230/25 199/243/25 198/244/25 
f 187/230/26 177/220/26 189/233/26 199/243/26 
f 104/130/14 107/133/14 165/207/14 164/206/14 
f 107/133/14 109/135/14 166/208/14 165/207/14 
f 109/135/14 111/137/14 167/209/14 166/208/14 
f 111/137/14 113/139/14 168/210/14 167/209/14 
f 113/139/14 115/141/14 169/211/14 168/210/14 
f 115/141/14 117/143/14 170/212/14 169/211/14 
f 117/143/14 119/145/14 171/213/14 170/212/14 
f 119/145/14 121/147/14 172/214/14 171/213/14 
f 121/147/14 123/149/14 173/215/14 172/214/14 
f 123/149/14 125/151/14 174/216/14 173/215/14 
f 125/152/14 127/155/14 175/218/14 174/217/14 
f 127/155/14 104/130/14 164/206/14 175/218/14 
f 102/128/14 101/127/14 189/245/14 188/246/14 
f 200/247/14 102/128/14 188/246/14 190/248/14 
f 201/249/14 200/247/14 190/248/14 191/250/14 
f 202/251/14 201/249/14 191/250/14 192/252/14 
f 203/253/14 202/251/14 192/252/14 193/254/14 
f 204/255/14 203/253/14 193/254/14 194/256/14 
f 205/257/14 204/255/14 194/256/14 195/258/14 
f 206/259/14 205/257/14 195/258/14 196/260/14 
f 207/261/14 206/259/14 196/260/14 197/241/14 
f 208/262/14 207/261/14 197/241/14 198/242/14 
f 103/129/14 208/262/14 198/242/14 199/263/14 
f 101/127/14 103/129/14 199/263/14 189/245/14 
s 1
f 203/253/14 204/255/14 205/257/14 
f 206/259/14 202/251/14 203/253/14 205/257/14 
f 207/261/14 201/249/14 202/251/14 206/259/14 
f 208/262/14 200/247/14 201/249/14 207/261/14 
f 103/129/14 102/128/14 200/247/14 208/262/14 
s off
f 97/123/13 100/126/13 75/264/13 74/265/13 
f 98/124/13 97/123/13 74/265/13 95/266/13 
f 209/267/13 98/124/13 95/266/13 93/117/13 
f 210/268/13 209/267/13 93/117/13 91/115/13 
f 211/269/13 210/268/13 91/115/13 89/270/13 
f 212/271/13 211/269/13 89/270/13 87/272/13 
f 213/273/13 212/271/13 87/272/13 85/274/13 
f 214/275/13 213/273/13 85/274/13 83/276/13 
f 215/277/13 214/275/13 83/276/13 81/278/13 
f 216/279/13 215/277/13 81/278/13 79/280/13 
f 99/125/13 216/279/13 79/280/13 77/281/13 
f 100/126/13 99/125/13 77/281/13 75/264/13 
s 1
f 214/275/13 211/269/13 212/271/13 213/273/13 
f 215/277/13 210/268/13 211/269/13 214/275/13 
f 216/279/13 209/267/13 210/268/13 215/277/13 
f 99/125/13 98/124/13 209/267/13 216/279/13 
# 211 polygons - 2 triangles

